<?xml version="1.0" standalone="no"?>
<!DOCTYPE svg PUBLIC "-//W3C//DTD SVG 20010904//EN"
 "http://www.w3.org/TR/2001/REC-SVG-20010904/DTD/svg10.dtd">
<svg version="1.0" xmlns="http://www.w3.org/2000/svg"
 width="400.000000pt" height="296.000000pt" viewBox="0 0 400.000000 296.000000"
 preserveAspectRatio="xMidYMid meet">

<g transform="translate(0.000000,296.000000) scale(0.100000,-0.100000)"
fill="#000000" stroke="none">
<path d="M680 2728 c0 -104 19 -162 121 -376 l68 -143 -47 41 c-101 88 -207
231 -263 356 -16 35 -31 64 -32 64 -2 0 0 -28 5 -62 26 -191 99 -361 204 -478
20 -22 35 -42 32 -45 -7 -8 -201 36 -290 65 -97 32 -192 75 -255 115 -53 32
-55 22 -12 -63 71 -143 244 -239 509 -283 l75 -13 -55 -14 c-72 -18 -314 -27
-364 -14 -37 11 -37 10 -22 -7 39 -43 227 -110 311 -112 l40 0 -49 -23 -50
-22 30 -21 c40 -28 91 -43 152 -44 29 -1 52 -5 52 -10 0 -14 -86 -60 -118 -62
-91 -6 64 -50 163 -45 45 2 74 -1 72 -7 -6 -17 -89 -55 -121 -55 l-31 -1 23
-19 c32 -26 114 -50 174 -50 49 0 61 -11 31 -29 -15 -8 -8 -14 42 -37 32 -15
81 -29 107 -32 l48 -5 0 -46 c0 -126 65 -344 155 -524 208 -414 542 -658 968
-708 237 -27 519 43 727 182 313 209 503 566 499 938 l-1 96 -18 -87 c-29
-141 -81 -277 -143 -376 -31 -47 -25 -51 36 -22 l42 21 -38 -35 c-21 -19 -50
-37 -65 -41 -16 -4 -63 -45 -115 -100 -135 -145 -255 -227 -427 -292 l-85 -32
101 -1 c107 0 213 21 301 60 82 36 57 14 -34 -30 -48 -23 -131 -53 -183 -67
-329 -85 -697 96 -853 422 -19 39 -40 93 -47 120 -7 28 -16 54 -20 58 -16 19
-35 -124 -35 -263 1 -159 19 -251 77 -379 46 -104 24 -82 -31 30 -115 236
-145 499 -86 757 37 159 146 395 238 511 l50 63 21 -41 22 -41 -1 56 c0 70 17
80 35 22 l14 -43 6 55 c10 84 29 129 73 178 45 48 98 78 217 122 72 26 162 70
249 120 l34 19 -36 35 c-20 18 -57 41 -83 50 -66 22 -192 21 -279 -3 -56 -16
-66 -17 -50 -4 19 14 18 15 -14 8 -29 -6 -37 -3 -54 16 -13 17 -17 19 -13 7 7
-23 8 -24 -60 17 -32 20 -77 40 -99 46 -61 17 -238 5 -310 -20 l-60 -21 50 5
c58 6 47 -4 -31 -31 -67 -23 -144 -68 -122 -72 12 -2 -11 -30 -80 -98 l-96
-94 -51 16 c-115 38 -204 123 -275 265 -65 128 -104 285 -112 452 -3 49 -5 55
-16 40 -42 -57 -61 -240 -39 -371 l14 -83 -30 28 c-122 116 -276 356 -343 533
-15 41 -31 79 -36 85 -4 5 -8 -30 -8 -77z m198 -397 c44 -67 134 -161 182
-190 19 -11 30 -21 24 -21 -21 0 -100 58 -146 107 -58 63 -110 143 -149 230
-40 90 -36 92 12 4 22 -41 57 -99 77 -130z m347 -237 c48 -99 115 -181 185
-227 29 -18 36 -26 20 -22 -111 33 -222 187 -270 373 -26 102 -25 130 1 37 11
-38 40 -111 64 -161z m-685 -14 c52 -17 136 -37 185 -45 l90 -15 -86 5 c-88 5
-208 37 -277 76 -20 11 -30 18 -22 15 8 -3 58 -19 110 -36z"/>
<path d="M2400 1311 l0 -131 55 0 c48 0 59 4 79 26 26 31 73 35 93 8 20 -28
16 -71 -9 -88 -30 -22 -42 -20 -76 9 -24 20 -41 25 -86 25 l-56 0 0 -320 c0
-176 2 -320 5 -320 4 0 310 175 322 184 1 1 -28 47 -65 103 -59 90 -70 101
-95 101 -59 -2 -83 74 -33 107 46 30 117 -29 89 -74 -9 -15 0 -36 54 -119 36
-56 68 -102 71 -102 4 0 48 24 98 53 51 28 151 86 223 127 72 41 130 79 128
83 -1 5 -30 24 -62 42 l-60 33 -107 -61 c-96 -54 -108 -64 -108 -88 0 -36 -24
-59 -60 -59 -40 0 -67 40 -54 78 11 32 57 51 83 35 14 -9 34 -1 110 42 51 29
97 57 102 62 7 7 -593 363 -628 371 -10 3 -13 -23 -13 -127z"/>
<path d="M2551 1196 c-7 -8 -10 -24 -6 -36 5 -17 13 -20 38 -18 28 3 32 7 32
33 0 25 -4 31 -26 33 -14 2 -31 -4 -38 -12z"/>
<path d="M2552 999 c-18 -7 -23 -15 -20 -36 2 -23 8 -28 32 -28 41 0 57 29 31
54 -15 15 -25 17 -43 10z"/>
<path d="M2769 926 c-9 -20 -9 -29 1 -41 28 -34 87 5 64 43 -18 28 -52 27 -65
-2z"/>
</g>
</svg>
