<?xml version="1.0" encoding="UTF-8"?>
<svg version="1.1" xmlns="http://www.w3.org/2000/svg" width="1477" height="1065">
<path d="M0 0 C487.41 0 974.82 0 1477 0 C1477 351.45 1477 702.9 1477 1065 C989.59 1065 502.18 1065 0 1065 C0 713.55 0 362.1 0 0 Z " fill="#FDFDFD" transform="translate(0,0)"/>
<path d="M0 0 C0.66 0 1.32 0 2 0 C2.27674561 0.8156543 2.55349121 1.63130859 2.83862305 2.47167969 C3.88841846 5.55923614 4.94192783 8.64547677 5.99780273 11.73095703 C6.45009367 13.05500872 6.90098935 14.37953802 7.3503418 15.70458984 C10.2583609 24.27593554 13.40279005 32.68891606 17 41 C17.48545288 42.1444458 17.48545288 42.1444458 17.98071289 43.31201172 C23.04344091 55.21099144 28.78906088 66.66235898 35 78 C35.45890625 78.8446582 35.9178125 79.68931641 36.390625 80.55957031 C46.35903305 98.81901005 58.04361576 115.7384157 71 132 C71.75796875 132.95132813 72.5159375 133.90265625 73.296875 134.8828125 C77.66648807 140.29209213 82.19479309 145.52143245 86.87890625 150.66015625 C88.80786335 152.78804815 90.69036353 154.94720859 92.5625 157.125 C98.55244751 164.45424045 98.55244751 164.45424045 106 170 C105.74605469 169.030625 105.49210938 168.06125 105.23046875 167.0625 C104.88254106 165.70840305 104.53490098 164.35423218 104.1875 163 C103.9390332 162.05640625 103.9390332 162.05640625 103.68554688 161.09375 C103.08497988 158.73680781 102.53617311 156.3724922 102 154 C101.73977051 152.85660156 101.47954102 151.71320313 101.21142578 150.53515625 C99.00487474 139.97325504 98.44123348 129.77311542 98.5 119 C98.50143005 118.14993378 98.50286011 117.29986755 98.5043335 116.42404175 C98.56350163 102.16234896 99.80580015 88.7082083 104 75 C104.23525391 74.2270459 104.47050781 73.4540918 104.71289062 72.65771484 C107.57106549 63.62848062 111.36375334 54.6699439 117 47 C117.66 47 118.32 47 119 47 C119.03963867 47.91362305 119.07927734 48.82724609 119.12011719 49.76855469 C121.68140811 106.32921658 130.55094409 168.26955866 167 214 C167.45987305 214.58330078 167.91974609 215.16660156 168.39355469 215.76757812 C182.6157278 233.61992 199.20247615 245.9876183 221 253 C221.88816406 253.35964844 222.77632812 253.71929687 223.69140625 254.08984375 C226.43095438 255.16990249 229.09126385 255.59412984 232 256 C232.25652344 255.43410156 232.51304687 254.86820313 232.77734375 254.28515625 C234.14047796 251.73744535 235.73635071 249.67683862 237.5625 247.4375 C238.27664063 246.55964844 238.99078125 245.68179688 239.7265625 244.77734375 C240.85191406 243.40255859 240.85191406 243.40255859 242 242 C242.72960937 241.09378906 243.45921875 240.18757812 244.2109375 239.25390625 C254.78778666 226.17201387 266.07696369 212.63902514 280 203 C276.04 202.67 272.08 202.34 268 202 C271.51811574 198.24515123 275.13345095 195.33438265 279.5625 192.6875 C280.19728271 192.30650146 280.83206543 191.92550293 281.48608398 191.53295898 C291.66779007 185.65146492 302.87863837 181.70712054 314 178 C306.74 178.33 299.48 178.66 292 179 C299.02757986 171.97242014 310.33167652 169.43919395 319.6875 166.75 C320.54134277 166.50403076 321.39518555 166.25806152 322.27490234 166.00463867 C332.78947849 163.08548944 342.76296506 161.63313293 353.6875 161.6875 C354.82437256 161.69096436 355.96124512 161.69442871 357.13256836 161.69799805 C366.08393344 161.81306069 374.33653623 162.72517638 383 165 C383.79277344 165.19335938 384.58554687 165.38671875 385.40234375 165.5859375 C399.47017001 169.62028619 414.20274537 178.18923627 424 189 C423.67 185.7 423.34 182.4 423 179 C426.25548753 182.02295271 428.68977058 185.20462309 431 189 C431 189.66 431 190.32 431 191 C432.13179687 190.6390625 433.26359375 190.278125 434.4296875 189.90625 C435.91141093 189.43735018 437.39318437 188.96860836 438.875 188.5 C439.62136719 188.26152344 440.36773438 188.02304687 441.13671875 187.77734375 C446.7734375 186 446.7734375 186 449 186 C449 186.66 449 187.32 449 188 C443.52380952 193 443.52380952 193 441 193 C441 193.66 441 194.32 441 195 C441.5249707 194.74750488 442.04994141 194.49500977 442.59082031 194.23486328 C448.51385757 191.48275802 454.44322345 189.54426285 460.75 187.875 C461.72445068 187.61638184 462.69890137 187.35776367 463.70288086 187.09130859 C482.77785225 182.12930805 502.13559245 180.30192747 521 187 C522.05574219 187.36222656 523.11148438 187.72445312 524.19921875 188.09765625 C534.7944857 192.09970971 544.9479066 199.02460839 552 208 C552.7109375 210.234375 552.7109375 210.234375 553 212 C551.741875 212.185625 550.48375 212.37125 549.1875 212.5625 C540.93788904 214.40865707 534.45448201 219.89600299 527.8125 224.875 C513.78718983 235.15096983 498.03947309 241.96378906 481.79296875 247.92578125 C466.26004593 253.63099152 450.54687818 259.90783234 438 271 C437.03835938 271.75410156 436.07671875 272.50820313 435.0859375 273.28515625 C431.79822922 276.02534117 429.37783109 279.12811044 426.9375 282.625 C426.28962524 283.54478638 426.28962524 283.54478638 425.62866211 284.4831543 C422.03493129 289.70984383 419.25032508 295.06061741 417 301 C416.70609375 301.76828125 416.4121875 302.5365625 416.109375 303.328125 C412.29228578 314.0309438 411.53046837 324.74848663 411 336 C404.98098162 330.75357204 401.73624291 321.63946881 400 314 C399.51801537 315.24891614 399.03954323 316.49918808 398.5625 317.75 C398.29566406 318.44609375 398.02882813 319.1421875 397.75390625 319.859375 C396.54705519 323.28608163 395.87601774 326.48080834 395.68359375 330.109375 C395.62075195 331.24052734 395.62075195 331.24052734 395.55664062 332.39453125 C395.49766602 333.56048828 395.49766602 333.56048828 395.4375 334.75 C395.39431641 335.54277344 395.35113281 336.33554687 395.30664062 337.15234375 C395.20097009 339.10137815 395.10002034 341.05066748 395 343 C390.25748641 338.60620064 387.28229584 333.45812402 386.75 326.9375 C386.87375 325.9784375 386.87375 325.9784375 387 325 C386.34 325 385.68 325 385 325 C384.62681641 325.87011719 384.62681641 325.87011719 384.24609375 326.7578125 C382.82082932 329.32239488 381.21026176 330.87870788 379.0625 332.875 C345.9198682 365.43525329 322.00796952 416.43588204 310.58007812 460.75585938 C309.91267939 463.33781611 309.21253176 465.91023081 308.515625 468.484375 C304.70575601 482.84083138 301.8935115 497.26699583 300 512 C299.91279694 512.67195404 299.82559387 513.34390808 299.73574829 514.03622437 C298.10189657 526.93687896 297.63990118 539.69175569 297.6875 552.6875 C297.68832581 553.64546478 297.68915161 554.60342957 297.69000244 555.59042358 C297.72381863 572.66599891 298.21098796 589.49832674 303 606 C303.46573479 608.24723543 303.87949526 610.50087719 304.29150391 612.75854492 C310.82006159 648.23454658 326.1810518 682.33400571 348 711 C347.68361572 710.39865234 347.36723145 709.79730469 347.04125977 709.17773438 C332.60642311 681.54555656 321.85083185 652.86253886 317 622 C316.84901855 621.05592285 316.69803711 620.1118457 316.54248047 619.13916016 C311.99675442 589.69246661 312.84595794 560.33325983 319.5 531.3125 C319.70133545 530.43255371 319.9026709 529.55260742 320.11010742 528.64599609 C320.31095947 527.8308252 320.51181152 527.0156543 320.71875 526.17578125 C320.89341797 525.46333252 321.06808594 524.75088379 321.24804688 524.0168457 C322.13220387 521.64541034 323.40635879 519.95177207 325 518 C325.19110352 518.65895264 325.38220703 519.31790527 325.57910156 519.99682617 C327.42754794 526.36573602 329.28792452 532.73104835 331.15429688 539.09472656 C331.81955881 541.38012409 332.47136593 543.66785783 333.109375 545.9609375 C335.53459756 554.40666871 339.07029598 562.17265482 343 570 C343.30953613 570.62165039 343.61907227 571.24330078 343.93798828 571.88378906 C362.97334386 609.79644848 393.51287122 639.53585534 431 659 C431.63518555 659.33128906 432.27037109 659.66257812 432.92480469 660.00390625 C471.8751883 680.01280831 520.15754321 684.35399967 562 671.25 C585.50583215 663.395397 608.6678783 652.20021198 629 638 C627.87980469 638.5053125 626.75960937 639.010625 625.60546875 639.53125 C624.13294202 640.18779058 622.66027861 640.84402466 621.1875 641.5 C620.44951172 641.83386719 619.71152344 642.16773438 618.95117188 642.51171875 C617.88286133 642.98544922 617.88286133 642.98544922 616.79296875 643.46875 C616.1383667 643.76201172 615.48376465 644.05527344 614.80932617 644.35742188 C613 645 613 645 610 645 C610 645.66 610 646.32 610 647 C609.01 647.32613281 608.02 647.65226563 607 647.98828125 C605.66663931 648.42960486 604.33330753 648.87101582 603 649.3125 C602.35160156 649.52583984 601.70320313 649.73917969 601.03515625 649.95898438 C597.72996933 651.05525925 594.46690794 652.20085893 591.2265625 653.4765625 C586.05766662 655.43285476 580.73250267 656.73163371 575.375 658.0625 C574.38371094 658.31837891 573.39242187 658.57425781 572.37109375 658.83789062 C558.86297185 662.21926734 545.79495575 663.33035699 531.92822266 663.26074219 C529.34384494 663.24986892 526.76014005 663.26078101 524.17578125 663.2734375 C522.52083181 663.27211826 520.86588279 663.26956076 519.2109375 663.265625 C518.44429779 663.26967346 517.67765808 663.27372192 516.88778687 663.27789307 C513.11167137 663.24461208 510.20279218 663.11836567 507 661 C507.94359375 660.69707031 508.8871875 660.39414062 509.859375 660.08203125 C518.0767408 657.41283977 526.08371529 654.4802564 534 651 C534.99265869 650.57098389 534.99265869 650.57098389 536.00537109 650.13330078 C564.55976664 637.66694584 591.45154572 620.5283214 614 599 C615.40890602 597.7619455 616.82479216 596.53175295 618.25 595.3125 C625.05598812 589.37655572 630.9802065 582.97880852 636.6328125 575.9375 C638.27651298 573.89779248 639.93069542 571.87840843 641.6171875 569.875 C642.05281006 569.35711914 642.48843262 568.83923828 642.93725586 568.30566406 C644.22500451 566.77962084 645.51676106 565.25696254 646.80859375 563.734375 C648.58073277 561.52314985 649.93471546 559.45172305 651.3125 557 C654.17589487 552.82044819 658.80053995 552.32220259 663.4609375 551.0703125 C674.62511462 547.69394988 682.89789498 541.06963165 691 533 C690.41734375 533.30292969 689.8346875 533.60585938 689.234375 533.91796875 C670.66010329 543.40953841 670.66010329 543.40953841 662 544 C663.34509851 541.22653313 664.81351826 538.59426667 666.43359375 535.97265625 C688.13587454 500.55386151 702.66139835 464.12311828 709.49609375 423.02001953 C710.10538463 419.36840703 710.7543098 415.7246249 711.40698242 412.08056641 C711.94786553 409.05539839 712.47470679 406.02790965 713 403 C713.33 403 713.66 403 714 403 C715.53271372 414.61388855 716.29734437 426.00040303 716.20581055 437.71435547 C716.1874522 440.13129244 716.18530288 442.54784382 716.18554688 444.96484375 C716.08602922 490.05978261 705.98770697 534.49522347 686 575 C685.61376465 575.79019531 685.2275293 576.58039062 684.82958984 577.39453125 C676.16717747 594.95337942 665.44369113 610.90966945 653 626 C652.32952637 626.81694336 652.32952637 626.81694336 651.64550781 627.65039062 C644.72957864 636.04510379 637.46583017 644.09246848 630 652 C629.36449219 652.67804687 628.72898437 653.35609375 628.07421875 654.0546875 C623.12236098 659.18381941 617.56850907 663.56358934 612 668 C610.90213368 668.88906358 609.80448347 669.77839406 608.70703125 670.66796875 C582.37094411 691.86393151 552.88114571 706.95473625 521 718 C520.15646973 718.29390625 519.31293945 718.5878125 518.44384766 718.890625 C497.53111288 726.03422987 474.95145061 730.09207276 452.83984375 730.203125 C451.90024307 730.21013931 450.9606424 730.21715363 449.99256897 730.22438049 C446.97416337 730.24179572 443.955954 730.24823339 440.9375 730.25 C439.39074585 730.25101212 439.39074585 730.25101212 437.81274414 730.25204468 C414.44555374 730.22773604 392.67631946 727.7643399 370 722 C368.50263544 721.6391931 367.00524102 721.27851012 365.5078125 720.91796875 C336.29018039 713.61520697 308.36054044 699.54721081 284 682 C282.96673584 681.25967529 282.96673584 681.25967529 281.91259766 680.50439453 C262.96890915 666.84235398 244.36420799 651.21733609 229.125 633.4609375 C227.47630038 631.55159787 225.80937591 629.66653072 224.125 627.7890625 C194.16654963 594.16795145 173.46240161 554.01953281 158 512 C157.65807617 511.09765625 157.31615234 510.1953125 156.96386719 509.265625 C143.8721848 474.32061052 136.92461523 434.28000541 138 397 C136.7521875 396.88269531 135.504375 396.76539063 134.21875 396.64453125 C128.56582145 396.01311063 123.05586641 394.88847244 117.5 393.6875 C116.02853516 393.38682617 116.02853516 393.38682617 114.52734375 393.08007812 C108.26207203 391.73275271 102.73244991 389.8505232 97 387 C96.27474121 386.64703857 95.54948242 386.29407715 94.80224609 385.93041992 C92.67299019 384.88485851 90.55398894 383.82113779 88.4375 382.75 C87.3537207 382.20472656 87.3537207 382.20472656 86.24804688 381.6484375 C84.49775502 380.7674959 82.748737 379.8840241 81 379 C81 378.34 81 377.68 81 377 C83.1171875 375.4921875 83.1171875 375.4921875 85.875 373.875 C87.23238281 373.06675781 87.23238281 373.06675781 88.6171875 372.2421875 C91 371 91 371 93 371 C93 370.34 93 369.68 93 369 C91.78828125 369.04640625 90.5765625 369.0928125 89.328125 369.140625 C67.17112567 369.73028708 43.28157734 365.45431369 25 352 C25 351.67 25 351.34 25 351 C26.258125 350.8040625 27.51625 350.608125 28.8125 350.40625 C40.78095965 348.37723951 50.49520377 345.00693789 61 339 C62.65135149 338.08024746 64.30371417 337.16230831 65.95703125 336.24609375 C66.72635986 335.81868896 67.49568848 335.39128418 68.28833008 334.95092773 C68.85318115 334.63712158 69.41803223 334.32331543 70 334 C68.26266602 334.0314209 68.26266602 334.0314209 66.49023438 334.06347656 C62.1142253 334.13692568 57.73826827 334.18217335 53.36181641 334.21972656 C51.48249086 334.23960682 49.60322517 334.26672087 47.72412109 334.30175781 C32.47238136 334.57861801 19.0577393 333.19313051 5 326.75 C3.845 326.22921875 2.69 325.7084375 1.5 325.171875 C0.675 324.78515625 -0.15 324.3984375 -1 324 C-1 323.34 -1 322.68 -1 322 C0.0209375 321.90525391 0.0209375 321.90525391 1.0625 321.80859375 C14.46152988 320.11589716 26.45114207 314.34272658 37 306 C35.89785156 305.97421875 34.79570312 305.9484375 33.66015625 305.921875 C13.35546444 305.2449015 -9.09177721 300.62509822 -25 287 C-25 286.34 -25 285.68 -25 285 C-21.41850547 283.51635293 -17.83450122 282.03886644 -14.25 280.5625 C-13.23421875 280.14162109 -12.2184375 279.72074219 -11.171875 279.28710938 C-10.1921875 278.88427734 -9.2125 278.48144531 -8.203125 278.06640625 C-6.85202637 277.5086853 -6.85202637 277.5086853 -5.47363281 276.93969727 C-3.32129646 276.12205587 -1.24458325 275.49701486 1 275 C0.36723145 274.96036133 -0.26553711 274.92072266 -0.91748047 274.87988281 C-14.61147027 273.98329676 -27.73815875 272.57524542 -41 269 C-41.75458496 268.79971191 -42.50916992 268.59942383 -43.28662109 268.39306641 C-57.93916539 264.45301607 -57.93916539 264.45301607 -64.21875 260.94140625 C-66.2402472 259.87302725 -68.2852836 259.14621088 -70.4375 258.375 C-81.77020317 253.93665031 -92.79854305 246.91692308 -102 239 C-99.27219213 237.63609606 -97.92732246 238.29262265 -94.96875 238.9609375 C-93.94007813 239.18499268 -92.91140625 239.40904785 -91.8515625 239.63989258 C-90.74554688 239.88247803 -89.63953125 240.12506348 -88.5 240.375 C-78.73953944 242.40773764 -69.37220581 243.84410839 -59.40722656 243.96484375 C-56.75667683 244.0035536 -54.11020411 244.09698867 -51.4609375 244.1875 C-26.7166531 244.81606101 -2.20666067 240.82081802 22 236 C15.85468195 234.53748297 9.69503007 233.4244621 3.46247864 232.39831543 C-37.36425606 225.65198563 -83.14061466 213.16837748 -113.5546875 183.375 C-115.93211376 180.97790208 -115.93211376 180.97790208 -118.51953125 179.046875 C-129.94064323 169.62220937 -138.44233662 153.23065353 -142 139 C-141.55859375 136.765625 -141.55859375 136.765625 -141 135 C-139.94425781 135.57331055 -139.94425781 135.57331055 -138.8671875 136.15820312 C-115.28530949 149.53356861 -115.28530949 149.53356861 -90.4375 160.140625 C-88.07118609 160.97490234 -85.83719816 161.94389014 -83.5625 163 C-79.23994154 164.97602673 -74.81527602 166.44778927 -70.28515625 167.875 C-67.56994898 168.80482128 -64.95602613 169.82608716 -62.3046875 170.91796875 C-56.97727288 173.06561535 -51.59028206 174.76076148 -46.0625 176.3125 C-45.01852051 176.60592285 -43.97454102 176.8993457 -42.89892578 177.20166016 C-13.57688845 185.27330058 -13.57688845 185.27330058 16.4375 188.0625 C18.01337891 188.04896484 18.01337891 188.04896484 19.62109375 188.03515625 C20.79865234 188.01775391 20.79865234 188.01775391 22 188 C21.47792969 187.44054687 20.95585937 186.88109375 20.41796875 186.3046875 C5.00603328 169.51620438 -8.2530417 151.09147411 -18.9453125 130.96972656 C-20.38033232 128.28969418 -21.88286071 125.64854724 -23.375 123 C-26.01607239 118.1505733 -28.06161279 113.16315867 -30 108 C-30.34933594 107.15953125 -30.69867188 106.3190625 -31.05859375 105.453125 C-32.15364557 102.59962897 -32.69073744 99.71738452 -33.3046875 96.73046875 C-34.11999209 93.52879511 -35.28008105 90.53203631 -36.4375 87.4375 C-42.07545518 71.48333051 -42.57145815 53.76277249 -42 37 C-40 38 -40 38 -39.03515625 40.328125 C-38.71417969 41.29234375 -38.39320313 42.2565625 -38.0625 43.25 C-36.74369166 47.20108571 -35.14963874 50.4442066 -33 54 C-31.99140653 56.32963166 -30.99221071 58.66334377 -30 61 C-17.74995428 86.49441334 -0.76369786 109.55866261 18.44140625 130.21875 C20.54111266 132.50117896 22.56397023 134.81747882 24.5625 137.1875 C30.33102402 143.84348926 37.23582764 149.39427806 44 155 C40.04156122 146.96515572 35.98061857 138.99059917 31.8125 131.0625 C31.39693848 130.27061279 30.98137695 129.47872559 30.55322266 128.6628418 C28.70559535 125.16003297 26.83324177 121.68718297 24.83203125 118.26953125 C23.22315495 115.39825308 21.99709567 112.70855426 20.875 109.625 C19.22489566 105.18397844 17.51254231 100.78509834 15.703125 96.40625 C10.28252812 83.24119828 5.49365868 70.07919467 1.66796875 56.36035156 C1.11727742 54.41441449 0.51817334 52.48224602 -0.09375 50.5546875 C-4.65055291 34.73245517 -2.68090802 16.06151141 0 0 Z " fill="#8125F9" transform="translate(474,136)"/>
<path d="M0 0 C0.33 0 0.66 0 1 0 C2.53271372 11.61388855 3.29734437 23.00040303 3.20581055 34.71435547 C3.1874522 37.13129244 3.18530288 39.54784382 3.18554688 41.96484375 C3.08602922 87.05978261 -7.01229303 131.49522347 -27 172 C-27.57935303 173.18529297 -27.57935303 173.18529297 -28.17041016 174.39453125 C-36.83282253 191.95337942 -47.55630887 207.90966945 -60 223 C-60.44698242 223.54462891 -60.89396484 224.08925781 -61.35449219 224.65039062 C-68.27042136 233.04510379 -75.53416983 241.09246848 -83 249 C-83.95326172 250.01707031 -83.95326172 250.01707031 -84.92578125 251.0546875 C-89.87763902 256.18381941 -95.43149093 260.56358934 -101 265 C-102.09786632 265.88906358 -103.19551653 266.77839406 -104.29296875 267.66796875 C-130.62905589 288.86393151 -160.11885429 303.95473625 -192 315 C-192.84353027 315.29390625 -193.68706055 315.5878125 -194.55615234 315.890625 C-215.46888712 323.03422987 -238.04854939 327.09207276 -260.16015625 327.203125 C-261.09975693 327.21013931 -262.0393576 327.21715363 -263.00743103 327.22438049 C-266.02583663 327.24179572 -269.044046 327.24823339 -272.0625 327.25 C-273.09366943 327.25067474 -274.12483887 327.25134949 -275.18725586 327.25204468 C-307.26116037 327.21867854 -338.9285158 322.6384044 -369 311 C-369 310.01 -369 309.02 -369 308 C-368.01 307.67 -367.02 307.34 -366 307 C-366.4125 306.12601563 -366.825 305.25203125 -367.25 304.3515625 C-368.83875902 300.97626589 -370.40778593 297.59203127 -371.97363281 294.20605469 C-372.94725793 292.11336284 -373.93772032 290.02935365 -374.9296875 287.9453125 C-398.0847906 238.50335377 -405.73030561 181.6534255 -393.5 128.3125 C-393.29866455 127.43255371 -393.0973291 126.55260742 -392.88989258 125.64599609 C-392.68904053 124.8308252 -392.48818848 124.0156543 -392.28125 123.17578125 C-392.10658203 122.46333252 -391.93191406 121.75088379 -391.75195312 121.0168457 C-390.86779613 118.64541034 -389.59364121 116.95177207 -388 115 C-387.80889648 115.65895264 -387.61779297 116.31790527 -387.42089844 116.99682617 C-385.57245206 123.36573602 -383.71207548 129.73104835 -381.84570312 136.09472656 C-381.18044119 138.38012409 -380.52863407 140.66785783 -379.890625 142.9609375 C-377.46540244 151.40666871 -373.92970402 159.17265482 -370 167 C-369.5356958 167.93247559 -369.5356958 167.93247559 -369.06201172 168.88378906 C-350.02665614 206.79644848 -319.48712878 236.53585534 -282 256 C-281.04722168 256.49693359 -281.04722168 256.49693359 -280.07519531 257.00390625 C-241.1248117 277.01280831 -192.84245679 281.35399967 -151 268.25 C-127.49416785 260.395397 -104.3321217 249.20021198 -84 235 C-85.12019531 235.5053125 -86.24039062 236.010625 -87.39453125 236.53125 C-88.86705798 237.18779058 -90.33972139 237.84402466 -91.8125 238.5 C-92.91948242 239.00080078 -92.91948242 239.00080078 -94.04882812 239.51171875 C-95.11713867 239.98544922 -95.11713867 239.98544922 -96.20703125 240.46875 C-96.8616333 240.76201172 -97.51623535 241.05527344 -98.19067383 241.35742188 C-100 242 -100 242 -103 242 C-103 242.66 -103 243.32 -103 244 C-103.99 244.32613281 -104.98 244.65226563 -106 244.98828125 C-107.33336069 245.42960486 -108.66669247 245.87101582 -110 246.3125 C-110.64839844 246.52583984 -111.29679687 246.73917969 -111.96484375 246.95898438 C-115.27003067 248.05525925 -118.53309206 249.20085893 -121.7734375 250.4765625 C-126.94233338 252.43285476 -132.26749733 253.73163371 -137.625 255.0625 C-138.61628906 255.31837891 -139.60757812 255.57425781 -140.62890625 255.83789062 C-154.13702815 259.21926734 -167.20504425 260.33035699 -181.07177734 260.26074219 C-183.65615506 260.24986892 -186.23985995 260.26078101 -188.82421875 260.2734375 C-190.47916819 260.27211826 -192.13411721 260.26956076 -193.7890625 260.265625 C-194.55570221 260.26967346 -195.32234192 260.27372192 -196.11221313 260.27789307 C-199.88832863 260.24461208 -202.79720782 260.11836567 -206 258 C-205.05640625 257.69707031 -204.1128125 257.39414062 -203.140625 257.08203125 C-194.9232592 254.41283977 -186.91628471 251.4802564 -179 248 C-178.33822754 247.71398926 -177.67645508 247.42797852 -176.99462891 247.13330078 C-148.44023336 234.66694584 -121.54845428 217.5283214 -99 196 C-97.59109398 194.7619455 -96.17520784 193.53175295 -94.75 192.3125 C-87.94401188 186.37655572 -82.0197935 179.97880852 -76.3671875 172.9375 C-74.72348702 170.89779248 -73.06930458 168.87840843 -71.3828125 166.875 C-70.72937866 166.09817871 -70.72937866 166.09817871 -70.06274414 165.30566406 C-68.77499549 163.77962084 -67.48323894 162.25696254 -66.19140625 160.734375 C-64.41926723 158.52314985 -63.06528454 156.45172305 -61.6875 154 C-58.82410513 149.82044819 -54.19946005 149.32220259 -49.5390625 148.0703125 C-38.37488538 144.69394988 -30.10210502 138.06963165 -22 130 C-22.58265625 130.30292969 -23.1653125 130.60585938 -23.765625 130.91796875 C-42.33989671 140.40953841 -42.33989671 140.40953841 -51 141 C-49.65490149 138.22653313 -48.18648174 135.59426667 -46.56640625 132.97265625 C-24.86412546 97.55386151 -10.33860165 61.12311828 -3.50390625 20.02001953 C-2.89461537 16.36840703 -2.2456902 12.7246249 -1.59301758 9.08056641 C-1.05213447 6.05539839 -0.52529321 3.02790965 0 0 Z " fill="#9023FA" transform="translate(1187,539)"/>
<path d="M0 0 C3.795966 1.5183864 6.99831661 3.03734259 10.5078125 5.0546875 C12.09662231 5.9674646 12.09662231 5.9674646 13.7175293 6.89868164 C15.40422729 7.87695923 15.40422729 7.87695923 17.125 8.875 C17.70512848 9.21046844 18.28525696 9.54593689 18.88296509 9.89157104 C27.0153517 14.5981037 35.04026277 19.44768435 42.95458984 24.51367188 C49.00294587 28.38523836 55.11092164 32.14904415 61.25 35.875 C62.21301025 36.45958984 63.17602051 37.04417969 64.16821289 37.64648438 C66.12911118 38.83591648 68.09029447 40.02487886 70.05175781 41.21337891 C74.91214242 44.15874944 79.76924013 47.10951235 84.625 50.0625 C85.58220947 50.64459229 86.53941895 51.22668457 87.52563477 51.82641602 C93.76478571 55.62561045 99.98218165 59.45834307 106.1875 63.3125 C113.88505613 68.09286949 121.61468071 72.81876142 129.36233521 77.51733398 C131.17078753 78.61485745 132.97799437 79.71440537 134.78491211 80.81445312 C140.09562083 84.04487174 145.4148869 87.25570953 150.78515625 90.38671875 C151.63505127 90.88800293 152.48494629 91.38928711 153.3605957 91.90576172 C154.90797753 92.81676755 156.4621753 93.71633359 158.02416992 94.60205078 C160.046875 95.80078125 160.046875 95.80078125 163 98 C163 99.32 163 100.64 163 102 C161.3137207 103.44116211 161.3137207 103.44116211 158.92578125 104.77734375 C158.04003418 105.28475098 157.15428711 105.7921582 156.24169922 106.31494141 C155.27506348 106.85038574 154.30842773 107.38583008 153.3125 107.9375 C151.29959855 109.08777658 149.28791119 110.24017992 147.27734375 111.39453125 C146.24077637 111.98572754 145.20420898 112.57692383 144.13623047 113.18603516 C139.15470103 116.06730277 134.26259471 119.08790955 129.375 122.125 C128.49368408 122.66890381 127.61236816 123.21280762 126.7043457 123.77319336 C123.01939107 126.05964763 119.44330393 128.35822985 116 131 C113.71014398 129.85507199 111.50704887 128.70193653 109.3125 127.375 C105.05637335 125.60830592 101.54665481 125.26535201 97 126 C91.6964772 128.70179463 87.90167702 132.29496895 86 138 C85.57800321 143.48595821 86.39542134 147.15009491 89 152 C93.00935516 156.60161881 93.00935516 156.60161881 98.609375 158.23828125 C107.04459606 158.46513416 107.04459606 158.46513416 114 154 C115.82619087 151.48635244 115.82619087 151.48635244 117 149 C117.33 148.34 117.66 147.68 118 147 C117.970271 146.15993408 117.94054199 145.31986816 117.90991211 144.4543457 C117.80269877 139.72463128 117.7628874 136.30179081 121.12939453 132.75927734 C124.18829134 130.68832081 127.29904644 128.91852918 130.5625 127.1875 C131.73515112 126.52726234 132.90529596 125.86255512 134.07299805 125.19360352 C135.88007371 124.16020278 137.68870522 123.13125486 139.50752258 122.11863708 C143.73697409 119.76100068 147.83345261 117.25150576 151.890625 114.609375 C152.97142334 113.90917236 154.05222168 113.20896973 155.16577148 112.48754883 C157.22978787 111.14287154 159.28937412 109.79136429 161.34399414 108.43237305 C162.27848389 107.83465088 163.21297363 107.23692871 164.17578125 106.62109375 C164.98958252 106.0892749 165.80338379 105.55745605 166.6418457 105.00952148 C169.62228842 103.73359948 170.94884464 103.98944344 174 105 C176.27661133 106.13574219 176.27661133 106.13574219 178.58203125 107.546875 C179.43216797 108.0625 180.28230469 108.578125 181.15820312 109.109375 C182.03412109 109.65078125 182.91003906 110.1921875 183.8125 110.75 C184.67681641 111.2759375 185.54113281 111.801875 186.43164062 112.34375 C188.1398179 113.38541584 189.8445009 114.43283629 191.54541016 115.48632812 C193.16173609 116.48306781 194.78632123 117.46655589 196.41943359 118.43554688 C197.1511377 118.87447266 197.8828418 119.31339844 198.63671875 119.765625 C199.61257935 120.34231934 199.61257935 120.34231934 200.6081543 120.93066406 C201.06746338 121.28354492 201.52677246 121.63642578 202 122 C202 122.66 202 123.32 202 124 C200.48144531 125.13818359 200.48144531 125.13818359 198.328125 126.3984375 C197.52987305 126.87095947 196.73162109 127.34348145 195.90917969 127.83032227 C195.03165039 128.34006592 194.15412109 128.84980957 193.25 129.375 C191.38529632 130.47505644 189.52071605 131.5753221 187.65625 132.67578125 C186.70363281 133.23475098 185.75101563 133.7937207 184.76953125 134.36962891 C180.74558071 136.73845311 176.74877584 139.15152295 172.75 141.5625 C166.715146 145.18962511 160.66717446 148.79418225 154.609375 152.3828125 C139.11273463 161.56368391 123.65399293 170.80009799 108.26953125 180.16796875 C107.24682129 180.78978027 106.22411133 181.4115918 105.17041016 182.05224609 C102.90916982 183.44144796 100.66055417 184.84334268 98.41943359 186.26416016 C97.82869553 186.63583817 97.23795746 187.00751617 96.62931824 187.39045715 C94.97860617 188.43039289 93.33230667 189.47732322 91.6862793 190.5246582 C89 192 89 192 86 192 C84.55224609 190.30126953 84.55224609 190.30126953 83.0234375 187.8828125 C82.44263428 186.97764893 81.86183105 186.07248535 81.26342773 185.13989258 C80.64024658 184.14497803 80.01706543 183.15006348 79.375 182.125 C78.04155275 180.02658825 76.70686648 177.92896345 75.37109375 175.83203125 C74.66710449 174.7229541 73.96311523 173.61387695 73.23779297 172.47119141 C70.93932567 168.88051232 68.55442886 165.35143548 66.16015625 161.82421875 C64.9730831 160.06196831 63.78736977 158.29881107 62.60211182 156.53533936 C61.82638096 155.38778132 61.04540848 154.24374897 60.25921631 153.10333252 C59.15696608 151.5019788 58.07600735 149.88603238 56.99609375 148.26953125 C56.36888428 147.34760986 55.7416748 146.42568848 55.09545898 145.47583008 C54 143 54 143 54.68774414 140.8581543 C55.12078857 140.24496338 55.55383301 139.63177246 56 139 C59.26797624 134.09803565 58.79806317 128.71715946 58 123 C55.76305261 118.64957309 52.55076603 115.78252027 48 114 C42.48376242 113.33928074 37.5765795 113.26801666 32.5 115.625 C27.6856245 120.19865673 25.74843764 123.3087462 25.5 130 C25.6963862 135.11871131 26.31367116 138.21914991 30 142 C34.63757382 145.67141261 36.9609298 146.12223196 42.80273438 145.54052734 C48.3078905 145.48239487 48.3078905 145.48239487 51.11645508 147.58282471 C53.02269292 149.95101787 54.59625083 152.3671704 56.15625 154.9765625 C56.75127319 155.89456635 57.34629639 156.81257019 57.95935059 157.75839233 C59.84692634 160.69019001 61.6732151 163.6550293 63.5 166.625 C64.7565235 168.60013836 66.01690469 170.5728282 67.28125 172.54296875 C69.60046711 176.16851962 71.89660318 179.80645572 74.16601562 183.46337891 C76.37751521 187.02409866 78.64855747 190.53027494 81 194 C79.52188087 198.50522611 76.03898219 200.03202691 72.125 202.1875 C70.5883835 203.06123897 69.05334561 203.93775754 67.51953125 204.81640625 C66.22329834 205.55721436 66.22329834 205.55721436 64.90087891 206.31298828 C58.55614942 210.00277794 52.31439449 213.86875243 46.05499268 217.70101929 C38.53218116 222.30404905 30.95355753 226.78264897 23.2824707 231.13427734 C20.34863894 232.80183721 17.42690897 234.4876284 14.51171875 236.1875 C13.70412109 236.65800781 12.89652344 237.12851562 12.06445312 237.61328125 C10.42832909 238.56779897 8.79295477 239.52360253 7.15820312 240.48046875 C6.36736328 240.94066406 5.57652344 241.40085937 4.76171875 241.875 C4.06006592 242.28492188 3.35841309 242.69484375 2.63549805 243.1171875 C1 244 1 244 0 244 C0 189.55 0 135.1 0 79 C8.91 79 17.82 79 27 79 C28.32 81.64 29.64 84.28 31 87 C34.65355613 90.56444501 37.54612105 91.26945797 42.5 91.4375 C47.01931479 91.25353875 50.23063045 90.66613944 54 88 C58.67177612 82.823167 59.35280455 79.60412302 59.28125 72.76171875 C58.8882632 68.90280666 57.57812163 66.85683749 55 64 C54.319375 63.21625 53.63875 62.4325 52.9375 61.625 C48.39497708 59.11211498 44.07418842 59.38811257 39 60 C34.2364911 61.6455758 31.78288277 63.82567584 29 68 C28.34 69.65 27.68 71.3 27 73 C18.09 73 9.18 73 0 73 C0 48.91 0 24.82 0 0 Z " fill="#9023FA" transform="translate(894,490)"/>
<path d="M0 0 C3.4375 1.625 3.4375 1.625 6 4 C7.423125 5.2065625 7.423125 5.2065625 8.875 6.4375 C12.01353456 10.39875721 11.56070456 15.0381729 11.56640625 19.87890625 C10.89635535 23.57111775 9.53610144 25.29247223 7 28 C8.34799473 31.6716145 10.00549692 34.76733396 12.16015625 38.02734375 C12.785271 38.97859131 13.41038574 39.92983887 14.05444336 40.90991211 C14.71710205 41.90901611 15.37976074 42.90812012 16.0625 43.9375 C17.41962037 45.99977003 18.77639181 48.06226971 20.1328125 50.125 C21.1232959 51.62740234 21.1232959 51.62740234 22.13378906 53.16015625 C24.59356591 56.90323897 27.02184154 60.66584183 29.4375 64.4375 C30.13746094 65.52933594 30.83742188 66.62117187 31.55859375 67.74609375 C32.03425781 68.48988281 32.50992188 69.23367188 33 70 C32.01 70.33 31.02 70.66 30 71 C30 72.98 30 74.96 30 77 C26.32733365 72.68623733 23.49040556 68.02595967 20.5625 63.19921875 C18.93904723 60.59195272 17.30802112 57.98953006 15.67626953 55.38745117 C14.55869438 53.58738364 13.4554367 51.7783479 12.36669922 49.96069336 C6.7735364 39.48664427 6.7735364 39.48664427 -2.34985352 32.8894043 C-5.39401879 32.92752857 -8.02657784 33.41242562 -11 34 C-15.76358624 32.73535053 -19.467051 29.25436386 -22.1171875 25.19140625 C-23.97194544 20.58733898 -23.72682723 15.83878498 -23 11 C-18.07563291 0.78649789 -10.48283905 -0.97546733 0 0 Z " fill="#F5EDFD" transform="translate(942,603)"/>
<path d="M0 0 C4.49245453 2.64475146 8.10701179 6.08005963 10 11 C10.68073835 16.2401022 10.65733258 20.6609892 8.3125 25.4375 C4.51895596 29.6411569 1.33254812 32.62853763 -4.453125 33.2734375 C-10.24723401 33.48383811 -14.11563534 33.2541804 -18.62890625 29.43359375 C-21.51579201 26.41511205 -23 24.20314682 -23 20 C-31.91 20 -40.82 20 -50 20 C-50 18.02 -50 16.04 -50 14 C-41.09 14 -32.18 14 -23 14 C-22.67 12.35 -22.34 10.7 -22 9 C-20.765625 7.05078125 -20.765625 7.05078125 -19.25 5.3125 C-18.76015625 4.73113281 -18.2703125 4.14976562 -17.765625 3.55078125 C-12.83109447 -0.78330862 -6.22815809 -1.15690646 0 0 Z " fill="#F6EEFD" transform="translate(944,549)"/>
<path d="M0 0 C0.33 0 0.66 0 1 0 C1.10957031 0.62116699 1.21914063 1.24233398 1.33203125 1.88232422 C8.76619708 43.23109411 22.74536892 82.05664658 52 113 C52.76957031 113.83402344 53.53914062 114.66804688 54.33203125 115.52734375 C62.59868095 124.19463883 72.05191485 131.06262827 83 136 C79.82936332 137.05600181 78.25567506 137.01422835 75.2421875 135.59375 C74.53908447 135.26576416 73.83598145 134.93777832 73.11157227 134.59985352 C72.00446899 134.05542603 72.00446899 134.05542603 70.875 133.5 C70.1130835 133.13124756 69.35116699 132.76249512 68.56616211 132.38256836 C58.43774785 127.37058065 50.10826902 120.84755298 42 113 C41.26007812 112.28585937 40.52015625 111.57171875 39.7578125 110.8359375 C13.37488775 83.51411863 -0.61230264 37.35046121 0 0 Z " fill="#F6EFFD" transform="translate(590,258)"/>
<path d="M0 0 C3.16546132 3.8025989 5.20349956 8.11944162 7.4375 12.5 C18.39643608 33.60874112 31.22550989 53.3754799 46 72 C46.75023437 72.95648438 47.50046875 73.91296875 48.2734375 74.8984375 C53.4471599 81.37920556 59.05241666 87.22966252 65 93 C67.32696896 95.31278013 69.64402631 97.63100288 71.921875 99.9921875 C76.61198642 104.8226014 81.59233326 108.99432093 87 113 C86.01 113.495 86.01 113.495 85 114 C44.39525925 97.65455791 19.10771242 48.15626831 3.078125 10.5769043 C2.72234375 9.72652588 2.3665625 8.87614746 2 8 C1.62359375 7.12706299 1.2471875 6.25412598 0.859375 5.35473633 C0 3 0 3 0 0 Z " fill="#F2EBFD" transform="translate(490,207)"/>
<path d="M0 0 C4.28055439 1.37520073 8.41116547 2.96368077 12.5625 4.6875 C43.26978984 17.04838814 75.47886086 23.49900638 108 29 C108 29.33 108 29.66 108 30 C73.50659147 31.37533527 43.65729822 22.60410744 12.8125 7.8125 C11.68263672 7.27947266 10.55277344 6.74644531 9.38867188 6.19726562 C8.31810547 5.68486328 7.24753906 5.17246094 6.14453125 4.64453125 C5.17878174 4.18409424 4.21303223 3.72365723 3.21801758 3.24926758 C1 2 1 2 0 0 Z " fill="#EADDFB" transform="translate(394,314)"/>
<path d="M0 0 C2.58297781 2.18991597 4.48415844 3.96831688 6 7 C6.3751455 11.97067782 6.15878799 15.05151502 3 19 C-1.20164097 21.54427726 -5.20820265 21.80290366 -10 21 C-13.13618159 18.97454939 -14.49687024 17.43943541 -15.73046875 13.91015625 C-16.42887781 10.41811095 -16.59563991 8.05760486 -14.81640625 4.8984375 C-10.34454607 -0.52132321 -7.03742585 -1.698689 0 0 Z " fill="#8E27FA" transform="translate(941,609)"/>
<path d="M0 0 C3.22618733 2.0790985 4.8669302 3.80039529 7 7 C7.4606067 11.97455239 7.16781812 15.06753613 4 19 C1.07104403 21.35943675 -0.74681503 21.96835188 -4.5 22.4375 C-8.5691036 21.92886205 -10.13345069 20.86654931 -13 18 C-14.88994636 14.22010728 -14.75778324 10.0957871 -14 6 C-10.57596939 0.81823261 -6.14745328 -1.13841727 0 0 Z " fill="#972AFA" transform="translate(1000,621)"/>
<path d="M0 0 C3.37495058 0.02428022 5.14420406 0.59958588 7.75 2.75 C10.70340674 5.77544105 11.20868218 6.47524558 11.6875 10.625 C11.19322704 15.56772958 9.77421699 16.91328301 6.3125 20.375 C3.11076746 21.97586627 -0.21327059 21.87417089 -3.6875 21.375 C-6.4975346 19.58136089 -8.19690468 18.35619065 -9.6875 15.375 C-10.10818924 12.31598826 -10.17778455 9.42741674 -9.6875 6.375 C-7.25 3.375 -7.25 3.375 -4.6875 1.375 C-3.6875 0.375 -3.6875 0.375 0 0 Z " fill="#8D25F9" transform="translate(936.6875,554.625)"/>
<path d="M0 0 C0.66 0.33 1.32 0.66 2 1 C3.05666992 5.73515242 3.62445075 10.3694897 1.875 14.9375 C-1.39311078 18.53242186 -4.63614083 21.78413861 -9.609375 22.23828125 C-20.13895907 22.4871147 -20.13895907 22.4871147 -25 18 C-25.66 17.401875 -26.32 16.80375 -27 16.1875 C-28.55735544 12.78078498 -27.23678977 10.38489832 -26 7 C-25.67 7 -25.34 7 -25 7 C-24.67 5.35 -24.34 3.7 -24 2 C-23.67 2 -23.34 2 -23 2 C-22.90203125 2.68707031 -22.8040625 3.37414062 -22.703125 4.08203125 C-22.47882812 5.43361328 -22.47882812 5.43361328 -22.25 6.8125 C-22.11078125 7.70582031 -21.9715625 8.59914063 -21.828125 9.51953125 C-20.81128505 12.56525469 -19.77193678 13.44426948 -17 15 C-13.34498227 15.39872921 -10.73040765 15.24900261 -7.25 14.0625 C-4.34528479 11.39984439 -3.69281416 8.89992942 -2.67578125 5.15625 C-2 3 -2 3 0 0 Z " fill="#F6ECFD" transform="translate(1009,627)"/>
<path d="M0 0 C0.33 0 0.66 0 1 0 C1.10957031 0.62116699 1.21914063 1.24233398 1.33203125 1.88232422 C4.20154084 17.84251322 8.17991828 33.14875077 13.23144531 48.5559082 C13.90331964 50.69254541 14.48548613 52.82093847 15 55 C13.35 55.66 11.7 56.32 10 57 C4.11234801 38.37185518 -0.32191529 19.63683293 0 0 Z " fill="#EFE2FD" transform="translate(590,258)"/>
<path d="M0 0 C6.1305563 0.62186313 12.13782004 1.48757839 18.19140625 2.62890625 C19.43747902 2.8598423 19.43747902 2.8598423 20.70872498 3.09544373 C23.32722261 3.58144195 25.94486312 4.07188916 28.5625 4.5625 C30.35215845 4.89547855 32.14187154 5.22816352 33.93164062 5.56054688 C38.28839882 6.37030928 42.64439488 7.18405909 47 8 C47 8.33 47 8.66 47 9 C29.3105227 9.70532206 13.20319432 8.19481262 -4 4 C-4 3.34 -4 2.68 -4 2 C-4.66 1.67 -5.32 1.34 -6 1 C-4.02 1 -2.04 1 0 1 C0 0.67 0 0.34 0 0 Z " fill="#F0E6FC" transform="translate(455,335)"/>
<path d="M0 0 C0.33 0 0.66 0 1 0 C2.53271372 11.61388855 3.29734437 23.00040303 3.20581055 34.71435547 C3.1874522 37.13129244 3.18530288 39.54784382 3.18554688 41.96484375 C3.16224886 52.01201527 2.74946377 61.9801265 2 72 C1.67 72 1.34 72 1 72 C0.67 54.51 0.34 37.02 0 19 C-0.33 21.31 -0.66 23.62 -1 26 C-1.83477268 28.45241507 -2.89559163 30.64713 -4 33 C-5.43910281 29.11731993 -4.57191397 26.09019247 -3.6875 22.125 C-2.1044434 14.78438199 -0.97552637 7.44843076 0 0 Z " fill="#B936F9" transform="translate(1187,539)"/>
<path d="M0 0 C1.52962901 2.29444352 2.59390692 4.17965231 3.6640625 6.66796875 C3.97802979 7.38919922 4.29199707 8.11042969 4.61547852 8.85351562 C4.94862061 9.62373047 5.2817627 10.39394531 5.625 11.1875 C8.71689231 18.27858589 12.02279337 25.2133664 15.64892578 32.04760742 C16.490123 33.66985646 17.25329503 35.33214617 18 37 C17.67 37.66 17.34 38.32 17 39 C11.7127177 31.6108598 6.68345332 24.08439531 1.875 16.375 C1.37766357 15.59334473 0.88032715 14.81168945 0.36791992 14.00634766 C-0.08607178 13.2694873 -0.54006348 12.53262695 -1.0078125 11.7734375 C-1.41660645 11.11778809 -1.82540039 10.46213867 -2.24658203 9.78662109 C-3 8 -3 8 -2 5 C-1.67 5 -1.34 5 -1 5 C-0.67 3.35 -0.34 1.7 0 0 Z " fill="#F2E8FD" transform="translate(805,810)"/>
<path d="M0 0 C-2.92824652 0.97608217 -4.95613276 1.08226668 -8 1 C-8 0.34 -8 -0.32 -8 -1 C-8.9075 -0.814375 -9.815 -0.62875 -10.75 -0.4375 C-14 0 -14 0 -15.86865234 -0.47094727 C-18.4368007 -1.10842464 -20.70684915 -1.07844157 -23.3515625 -1.02734375 C-24.87523437 -1.00897461 -24.87523437 -1.00897461 -26.4296875 -0.99023438 C-28.56777399 -0.95494811 -30.70580094 -0.91585775 -32.84375 -0.87304688 C-33.85695313 -0.86208984 -34.87015625 -0.85113281 -35.9140625 -0.83984375 C-36.8417041 -0.82300537 -37.7693457 -0.80616699 -38.72509766 -0.78881836 C-41 -1 -41 -1 -43 -3 C-28.38219358 -5.44292145 -14.02529651 -4.82590848 0 0 Z " fill="#AF32FA" transform="translate(995,323)"/>
<path d="M0 0 C2.83409763 -0.54269955 4.25977899 -0.73678134 7 0 C9.44954285 2.00053409 11.50482213 4.20371788 13.64453125 6.53125 C17.08860622 10.14096041 20.98948227 13.05136876 25 16 C24.34 16.33 23.68 16.66 23 17 C14.68941774 13.57449118 6.75785984 7.89691086 0 2 C0 1.34 0 0.68 0 0 Z " fill="#EEE1FD" transform="translate(552,304)"/>
<path d="M0 0 C0.66 0.33 1.32 0.66 2 1 C1.01 1.66 0.02 2.32 -1 3 C-1 3.66 -1 4.32 -1 5 C1.64 5.33 4.28 5.66 7 6 C7 6.99 7 7.98 7 9 C6.34 8.67 5.68 8.34 5 8 C3.3303193 7.98385116 1.65971714 8.03484222 -0.0078125 8.12109375 C-1.48701172 8.19360352 -1.48701172 8.19360352 -2.99609375 8.26757812 C-4.02863281 8.32365234 -5.06117188 8.37972656 -6.125 8.4375 C-7.68541016 8.51581055 -7.68541016 8.51581055 -9.27734375 8.59570312 C-11.85185116 8.72560946 -14.42599296 8.86058252 -17 9 C-14.08927365 5.85819393 -10.83519994 4.38362398 -6.9375 2.75 C-6.30005859 2.46898437 -5.66261719 2.18796875 -5.00585938 1.8984375 C-3.36387133 1.19942468 -1.68338487 0.59241797 0 0 Z " fill="#AF5DFA" transform="translate(783,306)"/>
<path d="M0 0 C5.2239314 1.67969487 10.29017009 3.68043748 15.36767578 5.74951172 C18.84062037 7.15774055 22.31482071 8.45762237 25.875 9.625 C26.90625 10.07875 27.9375 10.5325 29 11 C29.6953125 13.0859375 29.6953125 13.0859375 30 15 C23.14531385 12.95049906 16.87465073 10.16713499 10.5 6.9375 C9.59507812 6.49083984 8.69015625 6.04417969 7.7578125 5.58398438 C6.89929688 5.15279297 6.04078125 4.72160156 5.15625 4.27734375 C4.38087891 3.88796631 3.60550781 3.49858887 2.80664062 3.09741211 C1 2 1 2 0 0 Z " fill="#DFCBFD" transform="translate(394,314)"/>
<path d="M0 0 C0.66 0.33 1.32 0.66 2 1 C-0.41212517 2.71517916 -2.83185155 4.41717127 -5.265625 6.1015625 C-6.93718726 7.2621043 -8.59685514 8.44033719 -10.234375 9.6484375 C-12.13645396 10.98284173 -13.84328017 12.13362537 -16 13 C-19.5 12.3125 -19.5 12.3125 -22 11 C-20.68 10.67 -19.36 10.34 -18 10 C-18 9.34 -18 8.68 -18 8 C-16.86820313 7.50628906 -15.73640625 7.01257813 -14.5703125 6.50390625 C-13.08852958 5.85679852 -11.6067594 5.20966159 -10.125 4.5625 C-9.37863281 4.23701172 -8.63226562 3.91152344 -7.86328125 3.57617188 C-6.79013672 3.10727539 -6.79013672 3.10727539 -5.6953125 2.62890625 C-5.03547363 2.34088135 -4.37563477 2.05285645 -3.69580078 1.75610352 C-2.45008125 1.20067688 -1.21993963 0.60996982 0 0 Z " fill="#EFD8FD" transform="translate(1102,773)"/>
<path d="M0 0 C3.30951996 4.23827615 5.69146694 8.81612044 8.1875 13.5625 C8.65091797 14.42552734 9.11433594 15.28855469 9.59179688 16.17773438 C10.02943359 17.00724609 10.46707031 17.83675781 10.91796875 18.69140625 C11.31781982 19.44623291 11.7176709 20.20105957 12.12963867 20.97875977 C13 23 13 23 13 26 C12.01 26.33 11.02 26.66 10 27 C8.32468327 23.06612462 6.66124197 19.12733737 5 15.1875 C4.28457031 13.50817383 4.28457031 13.50817383 3.5546875 11.79492188 C3.10351562 10.72177734 2.65234375 9.64863281 2.1875 8.54296875 C1.76855469 7.55321045 1.34960938 6.56345215 0.91796875 5.54370117 C0 3 0 3 0 0 Z " fill="#E9D9FD" transform="translate(490,207)"/>
<path d="M0 0 C5.76173218 0.62627524 11.68381356 1.61688194 17 4 C17.33 4.99 17.66 5.98 18 7 C11.59491544 7.53375705 6.25702151 7.00981998 1 3 C0.67 2.01 0.34 1.02 0 0 Z " fill="#F0E8FD" transform="translate(423,326)"/>
<path d="M0 0 C2.73704754 2.73704754 3.16182449 5.26044774 4 9 C3.625 11.4375 3.625 11.4375 3 13 C3 12.01 3 11.02 3 10 C1.68 10.33 0.36 10.66 -1 11 C-1.66 13.97 -2.32 16.94 -3 20 C-3.66 19.67 -4.32 19.34 -5 19 C-4.48378772 12.16018724 -2.51409031 6.36123316 0 0 Z " fill="#8B36F5" transform="translate(798,654)"/>
<path d="M0 0 C0.66 0 1.32 0 2 0 C2.33 0.99 2.66 1.98 3 3 C-2.63851015 9.07472726 -8.74939666 14.88859165 -16 19 C-16.99 18.67 -17.98 18.34 -19 18 C-16.62484572 16.084553 -14.24481603 14.18382983 -11.8046875 12.3515625 C-7.04776995 8.75640039 -2.72471106 5.44942213 0 0 Z " fill="#AE28FA" transform="translate(1166,666)"/>
<path d="M0 0 C-0.33 0.66 -0.66 1.32 -1 2 C-3.8491012 2.43095648 -6.63405808 2.75155219 -9.5 3 C-14.57055422 3.48428601 -19.49346934 3.96669088 -24.4375 5.25 C-26.2009375 5.62125 -26.2009375 5.62125 -28 6 C-28.99 5.34 -29.98 4.68 -31 4 C-10.65957447 -0.76595745 -10.65957447 -0.76595745 0 0 Z " fill="#9A33FA" transform="translate(827,298)"/>
<path d="M0 0 C1.89693861 0.28438952 3.79252027 0.57783792 5.6875 0.875 C6.74324219 1.03742188 7.79898437 1.19984375 8.88671875 1.3671875 C11.79794914 1.95893069 14.28955607 2.8031806 17 4 C15.02 4.99 15.02 4.99 13 6 C13 6.99 13 7.98 13 9 C7.97290493 7.42903279 3.97133531 4.38006951 0 1 C0 0.67 0 0.34 0 0 Z " fill="#6515F5" transform="translate(372,374)"/>
<path d="M0 0 C-1.14339844 0.20496094 -2.28679687 0.40992188 -3.46484375 0.62109375 C-4.95576676 0.8930231 -6.44665016 1.16516974 -7.9375 1.4375 C-9.06961914 1.63956055 -9.06961914 1.63956055 -10.22460938 1.84570312 C-13.91953174 2.24272034 -13.91953174 2.24272034 -17 4 C-18.41570123 4.08651611 -19.835595 4.10704904 -21.25390625 4.09765625 C-22.10791016 4.09443359 -22.96191406 4.09121094 -23.84179688 4.08789062 C-24.73962891 4.07951172 -25.63746094 4.07113281 -26.5625 4.0625 C-27.46419922 4.05798828 -28.36589844 4.05347656 -29.29492188 4.04882812 C-31.53001314 4.03700225 -33.76497437 4.0205222 -36 4 C-36 3.67 -36 3.34 -36 3 C-31.51714867 2.40251497 -27.03316223 1.8148182 -22.54785156 1.23608398 C-21.02276194 1.03791307 -19.49801446 0.83709009 -17.97363281 0.63354492 C-15.78014724 0.34112784 -13.58560079 0.05832738 -11.390625 -0.22265625 C-10.7113092 -0.31531265 -10.03199341 -0.40796906 -9.33209229 -0.50343323 C-5.97975643 -0.92306832 -3.21515131 -1.1467373 0 0 Z " fill="#8C54F7" transform="translate(478,377)"/>
<path d="M0 0 C-1.45658127 2.91316254 -3.36160014 3.09207774 -6.375 4.1875 C-7.35210938 4.55230469 -8.32921875 4.91710937 -9.3359375 5.29296875 C-12 6 -12 6 -15 5 C-15 4.34 -15 3.68 -15 3 C-15.66 2.34 -16.32 1.68 -17 1 C-11.29014022 0.25983299 -5.75813575 -0.10469338 0 0 Z " fill="#F3E5FE" transform="translate(789,313)"/>
<path d="M0 0 C3.46237808 0.65721065 6.00634229 2.04047196 9 3.875 C9.845625 4.38804687 10.69125 4.90109375 11.5625 5.4296875 C13.79087175 6.86527315 15.90377366 8.37930649 18 10 C10.83292123 9.67422369 5.23072876 6.34556372 -1 3 C-0.67 2.01 -0.34 1.02 0 0 Z " fill="#F2E6FE" transform="translate(655,385)"/>
<path d="M0 0 C0 0.66 0 1.32 0 2 C-0.54527344 2.10957031 -1.09054687 2.21914063 -1.65234375 2.33203125 C-5.80997634 3.20620015 -9.7577584 4.22479636 -13.75 5.6875 C-17.18858423 6.89190779 -19.45565036 7.25767245 -23 6 C-23 5.67 -23 5.34 -23 5 C-19.91882573 4.15854044 -16.83474379 3.32826938 -13.75 2.5 C-12.87730469 2.26152344 -12.00460937 2.02304687 -11.10546875 1.77734375 C-10.26113281 1.55175781 -9.41679688 1.32617188 -8.546875 1.09375 C-7.77182617 0.88427734 -6.99677734 0.67480469 -6.19824219 0.45898438 C-4 0 -4 0 0 0 Z " fill="#A837F9" transform="translate(950,321)"/>
<path d="M0 0 C2.0625 1.4375 2.0625 1.4375 4 4 C4.05823431 7.07583023 3.59222907 9.98735648 3 13 C-0.23486594 12.29822123 -1.89181195 11.63523506 -4 9 C-4 8.34 -4 7.68 -4 7 C-5.32 6.34 -6.64 5.68 -8 5 C-7.67 4.34 -7.34 3.68 -7 3 C-3.04 6.465 -3.04 6.465 1 10 C0.67 6.7 0.34 3.4 0 0 Z " fill="#9F2EF8" transform="translate(897,315)"/>
<path d="M0 0 C7.88215471 2.80758166 14.87236664 6.64014179 22 11 C20.296875 11.66796875 20.296875 11.66796875 18 12 C15.703125 10.92578125 15.703125 10.92578125 13.25 9.3125 C8.93471659 6.56582851 4.60703722 4.21820311 0 2 C0 1.34 0 0.68 0 0 Z " fill="#9E28FC" transform="translate(865,304)"/>
<path d="M0 0 C2.77398263 3.46747828 4.95912413 7.06402511 7 11 C6.67 11.66 6.34 12.32 6 13 C4.68412059 11.87895467 3.37239647 10.75303035 2.0625 9.625 C1.33160156 8.99851562 0.60070312 8.37203125 -0.15234375 7.7265625 C-2 6 -2 6 -3 4 C-2.34 4 -1.68 4 -1 4 C-0.67 2.68 -0.34 1.36 0 0 Z " fill="#E8D8FC" transform="translate(512,279)"/>
<path d="M0 0 C0 0.33 0 0.66 0 1 C3.3 1.33 6.6 1.66 10 2 C10 2.33 10 2.66 10 3 C2.41 3 -5.18 3 -13 3 C-10.85642985 0.85642985 -9.92072889 0.52040399 -7.0625 -0.1875 C-6.37285156 -0.36667969 -5.68320312 -0.54585937 -4.97265625 -0.73046875 C-3 -1 -3 -1 0 0 Z " fill="#891DF4" transform="translate(994,795)"/>
<path d="M0 0 C2.20845985 0.31160461 4.41676251 0.62432346 6.625 0.9375 C7.85476563 1.11152344 9.08453125 1.28554688 10.3515625 1.46484375 C13.57556184 1.93774301 16.78812176 2.45151002 20 3 C20 3.33 20 3.66 20 4 C14.06 4 8.12 4 2 4 C1.34 2.68 0.68 1.36 0 0 Z " fill="#F8F2FE" transform="translate(482,340)"/>
<path d="M0 0 C2.1640625 0.0234375 2.1640625 0.0234375 4.625 0.375 C5.85089844 0.54128906 5.85089844 0.54128906 7.1015625 0.7109375 C7.72804688 0.80632812 8.35453125 0.90171875 9 1 C8.67 1.66 8.34 2.32 8 3 C8.99 3.66 9.98 4.32 11 5 C9.39667209 5.08121924 7.79215974 5.13929134 6.1875 5.1875 C5.29417969 5.22230469 4.40085937 5.25710938 3.48046875 5.29296875 C0.58352485 4.95081002 -0.22555028 4.24606427 -2 2 C-1.34 1.34 -0.68 0.68 0 0 Z " fill="#F9F6FE" transform="translate(464,337)"/>
<path d="M0 0 C2.29158942 2.89818662 4.07862366 5.83140544 5.75 9.125 C6.19859375 9.99382813 6.6471875 10.86265625 7.109375 11.7578125 C7.40328125 12.49773438 7.6971875 13.23765625 8 14 C7.67 14.66 7.34 15.32 7 16 C5.49428254 13.87885041 3.99531321 11.75346385 2.5 9.625 C2.07074219 9.02171875 1.64148438 8.4184375 1.19921875 7.796875 C-2 3.2265625 -2 3.2265625 -2 1 C-1.34 0.67 -0.68 0.34 0 0 Z " fill="#E5CBFD" transform="translate(815,833)"/>
<path d="M0 0 C-2.97 0.66 -5.94 1.32 -9 2 C-8.67 2.99 -8.34 3.98 -8 5 C-10.76276177 4.47731534 -13.3260876 3.89130413 -16 3 C-16 2.34 -16 1.68 -16 1 C-14.0852312 0.63571223 -12.16807707 0.28394694 -10.25 -0.0625 C-9.18265625 -0.25972656 -8.1153125 -0.45695312 -7.015625 -0.66015625 C-4 -1 -4 -1 0 0 Z " fill="#6D21F2" transform="translate(489,457)"/>
<path d="M0 0 C0.66 0.33 1.32 0.66 2 1 C-0.64 3.64 -3.28 6.28 -6 9 C-6.99 8.67 -7.98 8.34 -9 8 C-9 7.01 -9 6.02 -9 5 C-7.54735962 4.1361871 -6.0876837 3.28419546 -4.625 2.4375 C-3.40683594 1.72400391 -3.40683594 1.72400391 -2.1640625 0.99609375 C-1.44992187 0.66738281 -0.73578125 0.33867188 0 0 Z " fill="#F5DFFE" transform="translate(1164,668)"/>
<path d="M0 0 C1.98 0.495 1.98 0.495 4 1 C4 3.31 4 5.62 4 8 C2.68 8.33 1.36 8.66 0 9 C-0.84454356 5.62182575 -1.10844919 3.32534757 0 0 Z " fill="#F6F0FD" transform="translate(801,807)"/>
<path d="M0 0 C1.36125 0.37125 1.36125 0.37125 2.75 0.75 C2.75 1.41 2.75 2.07 2.75 2.75 C-0.5625 4.375 -0.5625 4.375 -4.25 5.75 C-5.24 5.09 -6.23 4.43 -7.25 3.75 C-4.05 -0.31153846 -4.05 -0.31153846 0 0 Z " fill="#F5E9FD" transform="translate(1081.25,784.25)"/>
<path d="M0 0 C0.66 0.33 1.32 0.66 2 1 C0.71451591 2.33929505 -0.57858155 3.67128643 -1.875 5 C-2.59429688 5.7425 -3.31359375 6.485 -4.0546875 7.25 C-6 9 -6 9 -8 9 C-8.2475 9.61875 -8.495 10.2375 -8.75 10.875 C-10.22047178 13.37480203 -11.41403076 13.83316022 -14 15 C-9.96886123 9.12125596 -5.52964597 4.49108302 0 0 Z " fill="#F1D8FE" transform="translate(915,403)"/>
<path d="M0 0 C0.66 0.66 1.32 1.32 2 2 C-0.60014527 3.03227862 -3.20426369 4.05105152 -5.8125 5.0625 C-6.55048828 5.35705078 -7.28847656 5.65160156 -8.04882812 5.95507812 C-13.66015625 8.11328125 -13.66015625 8.11328125 -17 7 C-11.42234327 4.05966587 -6.14673271 1.46987086 0 0 Z " fill="#A123FB" transform="translate(964,378)"/>
<path d="M0 0 C4.95 0.33 9.9 0.66 15 1 C15 1.66 15 2.32 15 3 C13.06318839 3.08107583 11.1254066 3.13922475 9.1875 3.1875 C8.10855469 3.22230469 7.02960938 3.25710938 5.91796875 3.29296875 C3 3 3 3 0 0 Z " fill="#7224F5" transform="translate(485,437)"/>
<path d="M0 0 C1.45599609 0.00580078 1.45599609 0.00580078 2.94140625 0.01171875 C5.4375 0.3125 5.4375 0.3125 7.4375 2.3125 C3.76362505 3.16548376 0.3927607 3.42039471 -3.375 3.375 C-4.83873047 3.36146484 -4.83873047 3.36146484 -6.33203125 3.34765625 C-7.43611328 3.33025391 -7.43611328 3.33025391 -8.5625 3.3125 C-6.0046594 0.02632512 -4.06004133 -0.07028034 0 0 Z " fill="#E7DAFD" transform="translate(407.5625,376.6875)"/>
<path d="M0 0 C0 0.66 0 1.32 0 2 C-5.47619048 7 -5.47619048 7 -8 7 C-8.33 7.99 -8.66 8.98 -9 10 C-9.08226668 6.95613276 -8.97608217 4.92824652 -8 2 C-5.27366306 0.89786379 -2.95855967 0 0 0 Z " fill="#B24EFA" transform="translate(923,322)"/>
<path d="M0 0 C5.27315333 0.4452885 10.01770224 1.08373163 15 3 C12.07175348 3.97608217 10.04386724 4.08226668 7 4 C7 3.34 7 2.68 7 2 C5.02 2.33 3.04 2.66 1 3 C0.67 2.01 0.34 1.02 0 0 Z " fill="#AB23FB" transform="translate(980,320)"/>
<path d="M0 0 C3.64775386 3.88309282 4.58525633 6.71201818 5 12 C4.01 10.68 3.02 9.36 2 8 C1.34 9.32 0.68 10.64 0 12 C0 8.04 0 4.08 0 0 Z " fill="#721FF5" transform="translate(433,176)"/>
<path d="M0 0 C1.57156655 3.1431331 0.11705576 5.365464 -0.9375 8.625 C-1.31777344 9.81351563 -1.69804688 11.00203125 -2.08984375 12.2265625 C-2.39019531 13.14179687 -2.69054687 14.05703125 -3 15 C-3.33 15 -3.66 15 -4 15 C-4.20705455 9.92716361 -3.72487541 5.79132057 -2 1 C-1.34 0.67 -0.68 0.34 0 0 Z " fill="#913CF8" transform="translate(785,591)"/>
<path d="M0 0 C3.41997495 1.4991671 5.87065088 3.49437137 8.625 6 C9.40101563 6.70125 10.17703125 7.4025 10.9765625 8.125 C12.34234404 9.39058907 13.6833613 10.6833613 15 12 C11.46167007 11.40632048 9.5845978 10.06937798 6.9375 7.6875 C6.26589844 7.09324219 5.59429687 6.49898438 4.90234375 5.88671875 C3.04071136 4.04037697 1.51389062 2.13642508 0 0 Z " fill="#732FF2" transform="translate(357,315)"/>
<path d="M0 0 C5.77759884 -0.12036664 11.27959989 0.1679418 17 1 C17 1.33 17 1.66 17 2 C11.0885256 2.77313045 5.8685408 3.14819277 0 2 C0 1.34 0 0.68 0 0 Z " fill="#9C30FA" transform="translate(832,298)"/>
<path d="M0 0 C5.94 0.99 5.94 0.99 12 2 C11.01 2.33 10.02 2.66 9 3 C9 3.66 9 4.32 9 5 C8.01 5.33 7.02 5.66 6 6 C2.8125 3.625 2.8125 3.625 0 1 C0 0.67 0 0.34 0 0 Z " fill="#752BF7" transform="translate(372,374)"/>
<path d="M0 0 C1.75128818 0.28382946 3.50100003 0.57739529 5.25 0.875 C6.71179688 1.11863281 6.71179688 1.11863281 8.203125 1.3671875 C10.77264117 1.94855848 12.72071056 2.70840265 15 4 C10.6678422 5.27416406 8.16510268 4.59514571 4 3 C2.67088318 2.65023242 1.33917261 2.30903983 0 2 C0 1.34 0 0.68 0 0 Z " fill="#9E2FFA" transform="translate(850,300)"/>
<path d="M0 0 C0.99 0.495 0.99 0.495 2 1 C2 1.66 2 2.32 2 3 C2.66 3 3.32 3 4 3 C4.86375896 4.61992165 5.71575854 6.24611861 6.5625 7.875 C7.03816406 8.77992188 7.51382812 9.68484375 8.00390625 10.6171875 C8.49697266 11.79667969 8.49697266 11.79667969 9 13 C8.67 13.66 8.34 14.32 8 15 C6.84735447 13.25447936 5.70312673 11.50339804 4.5625 9.75 C3.92441406 8.77546875 3.28632813 7.8009375 2.62890625 6.796875 C1.2423864 4.41618385 0.453419 2.68219693 0 0 Z " fill="#7628F3" transform="translate(459,272)"/>
<path d="M0 0 C1.65 0 3.3 0 5 0 C4.01 0.495 4.01 0.495 3 1 C3 1.99 3 2.98 3 4 C3.99 4.33 4.98 4.66 6 5 C4 6 4 6 1.8359375 5.44140625 C1.02382813 5.15136719 0.21171875 4.86132812 -0.625 4.5625 C-1.44226563 4.27503906 -2.25953125 3.98757813 -3.1015625 3.69140625 C-3.72804688 3.46324219 -4.35453125 3.23507812 -5 3 C-5 2.67 -5 2.34 -5 2 C-3.35 1.67 -1.7 1.34 0 1 C0 0.67 0 0.34 0 0 Z " fill="#E2D0FC" transform="translate(440,331)"/>
<path d="M0 0 C0.99 0.33 1.98 0.66 3 1 C0.51047079 3.66735273 -1.63408134 5.55746343 -5 7 C-5.66 6.34 -6.32 5.68 -7 5 C-5.90554162 4.13342884 -4.79902219 3.28207276 -3.6875 2.4375 C-3.07261719 1.96183594 -2.45773437 1.48617187 -1.82421875 0.99609375 C-1.22222656 0.66738281 -0.62023438 0.33867188 0 0 Z " fill="#F6E9FD" transform="translate(1061,754)"/>
<path d="M0 0 C0.66 0 1.32 0 2 0 C1.67 0.99 1.34 1.98 1 3 C-1.43359375 3.94921875 -1.43359375 3.94921875 -4.4375 4.6875 C-5.42621094 4.93886719 -6.41492187 5.19023438 -7.43359375 5.44921875 C-10 6 -10 6 -12 6 C-11.67 5.01 -11.34 4.02 -11 3 C-9.35 3.33 -7.7 3.66 -6 4 C-6 3.34 -6 2.68 -6 2 C-4.02 2 -2.04 2 0 2 C0 1.34 0 0.68 0 0 Z " fill="#B552FA" transform="translate(1148,674)"/>
<path d="M0 0 C0.33 0 0.66 0 1 0 C2.19937786 6.37259801 2.06475363 10.23826317 -1 16 C-2.26823485 12.34606463 -1.75715321 9.50929974 -1.0625 5.75 C-0.86785156 4.67234375 -0.67320313 3.5946875 -0.47265625 2.484375 C-0.31667969 1.66453125 -0.16070313 0.8446875 0 0 Z " fill="#BD49FB" transform="translate(1184,556)"/>
<path d="M0 0 C0.66 0.33 1.32 0.66 2 1 C0.37660195 2.70884005 -1.29319053 4.37446717 -3 6 C-3.66 6 -4.32 6 -5 6 C-5.33 6.66 -5.66 7.32 -6 8 C-6.66 7.67 -7.32 7.34 -8 7 C-8 6.34 -8 5.68 -8 5 C-6.3203125 3.67578125 -6.3203125 3.67578125 -4.125 2.3125 C-3.40570312 1.85488281 -2.68640625 1.39726562 -1.9453125 0.92578125 C-1.30335938 0.62027344 -0.66140625 0.31476563 0 0 Z " fill="#8237F5" transform="translate(563,508)"/>
<path d="M0 0 C3.81684226 1.55500981 6.19195732 4.03595495 9 7 C4.94718288 5.77472971 1.55639236 4.30119506 -2 2 C-1.34 1.34 -0.68 0.68 0 0 Z " fill="#E6D3FD" transform="translate(568,314)"/>
<path d="M0 0 C0.33 1.32 0.66 2.64 1 4 C-1.97 4 -4.94 4 -8 4 C-6 1 -6 1 -2.875 0.3125 C-1.92625 0.209375 -0.9775 0.10625 0 0 Z " fill="#9020FA" transform="translate(779,309)"/>
<path d="M0 0 C0.33 0 0.66 0 1 0 C1.33 6.6 1.66 13.2 2 20 C1.34 20 0.68 20 0 20 C-0.94148531 17.17554408 -1.07311695 15.85828382 -0.87890625 12.98828125 C-0.83056641 12.23095703 -0.78222656 11.47363281 -0.73242188 10.69335938 C-0.67634766 9.90767578 -0.62027344 9.12199219 -0.5625 8.3125 C-0.51029297 7.51521484 -0.45808594 6.71792969 -0.40429688 5.89648438 C-0.27480978 3.93063478 -0.13809959 1.96526335 0 0 Z " fill="#D3A4F9" transform="translate(869,462)"/>
<path d="M0 0 C2.31 0.33 4.62 0.66 7 1 C7.33 1.99 7.66 2.98 8 4 C5.69 4 3.38 4 1 4 C0.67 2.68 0.34 1.36 0 0 Z " fill="#F8F4FE" transform="translate(433,329)"/>
<path d="M0 0 C0.99 0.66 1.98 1.32 3 2 C3 2.66 3 3.32 3 4 C-1.455 5.485 -1.455 5.485 -6 7 C-6 6.34 -6 5.68 -6 5 C-4.04072937 3.2856382 -2.04119788 1.61594832 0 0 Z " fill="#F4E5FD" transform="translate(921,324)"/>
<path d="M0 0 C2.35953094 2.35953094 2.49141413 3.77895617 3 7 C3.99 7.33 4.98 7.66 6 8 C6 10.31 6 12.62 6 15 C2.35219334 10.8310781 0 5.55196264 0 0 Z " fill="#7324EE" transform="translate(485,218)"/>
<path d="M0 0 C2.53833449 1.26916725 2.89400901 2.41624809 4.125 4.9375 C4.47820312 5.64777344 4.83140625 6.35804688 5.1953125 7.08984375 C6 9 6 9 6 11 C3 10 3 10 1.3125 7.1875 C0 4 0 4 0 0 Z " fill="#8C43F9" transform="translate(498,195)"/>
<path d="M0 0 C-5.75 5 -5.75 5 -8 5 C-8 3.35 -8 1.7 -8 0 C-4.71303767 -0.79953138 -3.28976808 -1.09658936 0 0 Z " fill="#F2E9FD" transform="translate(512,442)"/>
<path d="M0 0 C3.35620271 1.38877354 5.07298728 2.91677965 7 6 C7 6.66 7 7.32 7 8 C5.68 8 4.36 8 3 8 C2.01 5.36 1.02 2.72 0 0 Z " fill="#B92EFB" transform="translate(1020,340)"/>
<path d="M0 0 C2 2 2 2 2.125 5.625 C2.08375 6.73875 2.0425 7.8525 2 9 C1.01 9.33 0.02 9.66 -1 10 C-1.125 2.25 -1.125 2.25 0 0 Z " fill="#9837F9" transform="translate(945,614)"/>
<path d="M0 0 C3.96 1.98 3.96 1.98 8 4 C8 4.66 8 5.32 8 6 C6.02 6.99 6.02 6.99 4 8 C3.896875 7.38125 3.79375 6.7625 3.6875 6.125 C3.12474627 3.63473516 3.12474627 3.63473516 0 2 C0 1.34 0 0.68 0 0 Z " fill="#AC2DFB" transform="translate(1088,608)"/>
<path d="M0 0 C1.98 0 3.96 0 6 0 C6 0.99 6 1.98 6 3 C2.25 4.125 2.25 4.125 0 3 C0 2.01 0 1.02 0 0 Z " fill="#F4EDFD" transform="translate(443,332)"/>
<path d="M0 0 C4.75481646 0.57634139 7.97048212 2.55068521 12 5 C11.34 5.66 10.68 6.32 10 7 C10 6.34 10 5.68 10 5 C9.278125 4.9175 8.55625 4.835 7.8125 4.75 C4.44686746 3.85249799 2.58387184 2.2885722 0 0 Z " fill="#AD20FC" transform="translate(998,325)"/>
<path d="M0 0 C1.32 0.66 2.64 1.32 4 2 C2.25215171 2.36463732 0.50159498 2.7163078 -1.25 3.0625 C-2.71179687 3.35833984 -2.71179687 3.35833984 -4.203125 3.66015625 C-6.868119 3.98397535 -8.48871723 3.85503199 -11 3 C-10.01 3 -9.02 3 -8 3 C-8 2.34 -8 1.68 -8 1 C-6.865625 1.020625 -5.73125 1.04125 -4.5625 1.0625 C-1.18424326 1.41577477 -1.18424326 1.41577477 0 0 Z " fill="#A445FA" transform="translate(1036,794)"/>
<path d="M0 0 C0.66 0.66 1.32 1.32 2 2 C-1.83325617 4.70582788 -4.32538149 5.32613618 -9 5 C-6.08596738 3.05731159 -3.14191424 1.53604696 0 0 Z " fill="#9F33F7" transform="translate(1075,791)"/>
<path d="M0 0 C0.33 0 0.66 0 1 0 C1.28571429 7.42857143 1.28571429 7.42857143 -1 11 C-1.66 10.67 -2.32 10.34 -3 10 C-2.67 8.35 -2.34 6.7 -2 5 C-1.67 5 -1.34 5 -1 5 C-0.67 3.35 -0.34 1.7 0 0 Z " fill="#EFE1FB" transform="translate(985,629)"/>
<path d="M0 0 C2 3 2 3 2 6 C0.35 6.66 -1.3 7.32 -3 8 C-2.45276317 4.62537285 -1.9451 2.91765 0 0 Z " fill="#F2E2FE" transform="translate(874,449)"/>
<path d="M0 0 C-2.28459758 2.28459758 -4.12537344 2.97129748 -7.125 4.125 C-8.03507813 4.47820312 -8.94515625 4.83140625 -9.8828125 5.1953125 C-10.58148437 5.46085937 -11.28015625 5.72640625 -12 6 C-12 5.34 -12 4.68 -12 4 C-10.56988027 3.13353333 -9.13059381 2.28218171 -7.6875 1.4375 C-6.48673828 0.72400391 -6.48673828 0.72400391 -5.26171875 -0.00390625 C-3 -1 -3 -1 0 0 Z " fill="#A024FA" transform="translate(947,386)"/>
<path d="M0 0 C2.97 0.33 5.94 0.66 9 1 C5.55549263 3.29633824 3.06187717 3.54016485 -1 4 C-0.67 2.68 -0.34 1.36 0 0 Z " fill="#ECDFFD" transform="translate(490,370)"/>
<path d="M0 0 C0.33 0.99 0.66 1.98 1 3 C-1.97 5.475 -1.97 5.475 -5 8 C-5.66 7.34 -6.32 6.68 -7 6 C-4.69 4.02 -2.38 2.04 0 0 Z " fill="#8F2CFA" transform="translate(751,341)"/>
<path d="M0 0 C-1 3 -1 3 -3 4 C-5.3329866 4.04022391 -7.66706666 4.04320247 -10 4 C-6.86268382 1.90845588 -3.85464592 0 0 0 Z " fill="#9A36FB" transform="translate(784,316)"/>
<path d="M0 0 C0.99 0.33 1.98 0.66 3 1 C3 1.99 3 2.98 3 4 C3.99 4.33 4.98 4.66 6 5 C6.33 6.65 6.66 8.3 7 10 C3.60582235 6.87378374 1.3937282 4.43458973 0 0 Z " fill="#7728F4" transform="translate(468,287)"/>
<path d="M0 0 C2 2 2 2 2.125 4.625 C2.08375 5.40875 2.0425 6.1925 2 7 C0.0625 6.625 0.0625 6.625 -2 6 C-2.33 5.34 -2.66 4.68 -3 4 C-2.34 4 -1.68 4 -1 4 C-0.67 2.68 -0.34 1.36 0 0 Z " fill="#F1E9FC" transform="translate(512,279)"/>
<path d="M0 0 C0.66 0.66 1.32 1.32 2 2 C1.64700993 5.44165321 0.95418308 7.06872538 -1 10 C-1.125 2.25 -1.125 2.25 0 0 Z " fill="#771CF5" transform="translate(793,673)"/>
<path d="M0 0 C0.99 0 1.98 0 3 0 C3.144375 0.886875 3.28875 1.77375 3.4375 2.6875 C3.91019978 5.47117646 4.43070185 8.23483757 5 11 C2.03947516 7.63576723 1.07710178 4.30840713 0 0 Z " fill="#9938F0" transform="translate(862,466)"/>
<path d="M0 0 C-1.485 1.485 -1.485 1.485 -3 3 C-2.34 3.66 -1.68 4.32 -1 5 C-2.65 4.67 -4.3 4.34 -6 4 C-6.33 3.01 -6.66 2.02 -7 1 C-4.53721199 -0.231394 -2.7204945 -0.07159196 0 0 Z " fill="#7127F6" transform="translate(456,420)"/>
<path d="M0 0 C4.55737263 0.43820891 7.57653445 0.85041169 11 4 C6.44262737 3.56179109 3.42346555 3.14958831 0 0 Z " fill="#E4CBFD" transform="translate(662,391)"/>
<path d="M0 0 C0.66 0.66 1.32 1.32 2 2 C0.35 3.65 -1.3 5.3 -3 7 C-3.99 6.67 -4.98 6.34 -6 6 C-4.02 4.02 -2.04 2.04 0 0 Z " fill="#9435F9" transform="translate(736,355)"/>
<path d="M0 0 C0.33 0 0.66 0 1 0 C2.62950412 4.12168689 3.26264601 6.70700357 2 11 C0 9 0 9 -0.1953125 6.8359375 C-0.17210937 6.02382812 -0.14890625 5.21171875 -0.125 4.375 C-0.10695313 3.55773437 -0.08890625 2.74046875 -0.0703125 1.8984375 C-0.04710937 1.27195313 -0.02390625 0.64546875 0 0 Z " fill="#6F1FF4" transform="translate(434,196)"/>
<path d="M0 0 C1.65 1.32 3.3 2.64 5 4 C4.67 4.66 4.34 5.32 4 6 C2.02 5.34 0.04 4.68 -2 4 C-2 3.01 -2 2.02 -2 1 C-1.34 0.67 -0.68 0.34 0 0 Z " fill="#984EF6" transform="translate(820,846)"/>
<path d="M0 0 C1.74627478 2.61941217 2.38722388 4.03824877 3 7 C1.02 7.99 1.02 7.99 -1 9 C-2.25541557 5.23375329 -1.37061958 3.62811066 0 0 Z " fill="#E6D6FB" transform="translate(805,810)"/>
<path d="M0 0 C0.66 0.33 1.32 0.66 2 1 C-0.64 2.65 -3.28 4.3 -6 6 C-6.66 5.34 -7.32 4.68 -8 4 C-6.71349294 3.30289269 -5.42059335 2.61757124 -4.125 1.9375 C-3.40570312 1.55464844 -2.68640625 1.17179688 -1.9453125 0.77734375 C-1.30335937 0.52082031 -0.66140625 0.26429688 0 0 Z " fill="#D798FC" transform="translate(1102,773)"/>
<path d="M0 0 C0.99 0.33 1.98 0.66 3 1 C1.35 2.98 -0.3 4.96 -2 7 C-2.66 6.34 -3.32 5.68 -4 5 C-2.68 3.35 -1.36 1.7 0 0 Z " fill="#A92EFA" transform="translate(1119,702)"/>
<path d="M0 0 C0.33 0.99 0.66 1.98 1 3 C-0.1875 4.5 -0.1875 4.5 -2 6 C-4.6875 6.1875 -4.6875 6.1875 -7 6 C-6.21625 5.38125 -5.4325 4.7625 -4.625 4.125 C-2.03162353 2.10141339 -2.03162353 2.10141339 0 0 Z " fill="#972FF7" transform="translate(1009,643)"/>
<path d="M0 0 C4 4 4 4 4.171875 6.140625 C3.78125 8.09375 3.390625 10.046875 3 12 C2.67 12 2.34 12 2 12 C1.34 8.04 0.68 4.08 0 0 Z " fill="#CE76FC" transform="translate(897,315)"/>
<path d="M0 0 C1.98 0.66 3.96 1.32 6 2 C5.01 3.485 5.01 3.485 4 5 C2.68 4.34 1.36 3.68 0 3 C0 2.01 0 1.02 0 0 Z " fill="#A641F9" transform="translate(1006,616)"/>
<path d="M0 0 C0.33 0 0.66 0 1 0 C1.125 3.375 1.125 3.375 1 7 C0.34 7.66 -0.32 8.32 -1 9 C-2 8 -2 8 -2.1875 5.625 C-2 3 -2 3 0 0 Z " fill="#9E45F7" transform="translate(947,562)"/>
<path d="M0 0 C2.64 0 5.28 0 8 0 C8 0.66 8 1.32 8 2 C8.66 2.33 9.32 2.66 10 3 C3.375 2.25 3.375 2.25 0 0 Z " fill="#8746FB" transform="translate(417,323)"/>
</svg>
